<?xml version="1.0" encoding="utf-8"?>
<!-- Generator: Adobe Illustrator 20.0.0, SVG Export Plug-In . SVG Version: 6.00 Build 0)  -->
<svg version="1.1" id="Layer_1" xmlns="http://www.w3.org/2000/svg" xmlns:xlink="http://www.w3.org/1999/xlink" x="0px" y="0px"
	 viewBox="0 0 237.4 24.5" style="enable-background:new 0 0 237.4 24.5;" xml:space="preserve">
<style type="text/css">
	.st0{fill:#414042;}
</style>
<g>
	<polygon class="st0" points="4.8,8.9 11.5,8.9 11.5,17.7 14.3,17.7 14.3,8.9 20.8,8.9 20.8,6.3 4.8,6.3 	"/>
	<rect x="22.2" y="6.3" class="st0" width="2.8" height="11.4"/>
	<path class="st0" d="M40,15h-0.1c-0.3,0-0.6-0.1-0.9-0.3c-0.3-0.2-0.5-0.4-0.7-0.6l-5.5-6.4c-0.5-0.5-1-0.9-1.5-1.2
		c-0.5-0.2-1.2-0.4-1.9-0.4h-2.8v11.4h2.7V8.9h0.1c0.3,0,0.6,0.1,0.9,0.2c0.3,0.2,0.5,0.4,0.7,0.6l5.4,6.3c0.5,0.6,1,1,1.5,1.2
		c0.5,0.3,1.2,0.4,2,0.4h2.9V6.3H40V15z"/>
	<path class="st0" d="M57.4,6.3H44.1v11.4h13.3c2.9,0,4.3-1.2,4.3-3.6V9.9C61.7,7.5,60.3,6.3,57.4,6.3z M58.9,14c0,0.6-0.5,1-1.5,1
		H46.9V8.9h10.5c1,0,1.5,0.3,1.5,1V14z"/>
	<path class="st0" d="M65.9,14.4v-1.2H79v-2.6H65.9V9.5c0-0.4,0.2-0.6,0.6-0.6h12.5V6.3H66.6c-2.3,0-3.4,0.9-3.4,2.8v5.8
		c0,1.9,1.1,2.8,3.4,2.8h12.6V15H66.6C66.1,15,65.9,14.8,65.9,14.4z"/>
	<path class="st0" d="M103.4,14.9c0,0.2-0.1,0.9-1.2,0.9h-11c-1.1,0-1.2-0.7-1.2-0.9V6.2h-2.2v9.1c0,1.1,0.3,2.6,3.3,2.6h11.1
		c3,0,3.3-1.5,3.3-2.6V6.2h-2.2V14.9z"/>
	<polygon class="st0" points="108.1,8.2 115.4,8.2 115.4,17.8 117.6,17.8 117.6,8.2 124.8,8.2 124.8,6.2 108.1,6.2 	"/>
	<path class="st0" d="M137.7,15c-0.1,0.3-0.3,0.5-0.5,0.6c-0.2,0.1-0.4,0.2-0.7,0.2h-0.9c-0.4,0-0.9-0.1-1.2-0.8l-5-8.8h-2.5
		l6.2,10.8c0.1,0.2,0.2,0.3,0.3,0.4c0.1,0.1,0.1,0.2,0.2,0.2c0.1,0.1,0.2,0.1,0.3,0.1c0.2,0,0.4,0.1,0.6,0.1h3
		c0.7,0,1.2-0.3,1.5-0.8l6.2-10.9h-2.5L137.7,15z"/>
	<rect x="147.3" y="6.2" class="st0" width="2.2" height="11.7"/>
	<polygon class="st0" points="168,6.2 165.1,6.2 160.4,10.8 154.1,10.8 154.1,6.2 151.9,6.2 151.9,17.8 154.1,17.8 154.1,12.7 
		160.6,12.7 165.6,17.8 168.5,17.8 162.2,11.5 	"/>
	<path class="st0" d="M173,14.8V6.2h-2.2v9.1c0,1.1,0.3,2.6,3.3,2.6h13.3v-2h-13.3C173.3,15.8,173,15.3,173,14.8z"/>
	<rect x="189.6" y="6.2" class="st0" width="2.2" height="11.7"/>
	<path class="st0" d="M209.2,15.8h-0.6c-0.4,0-0.8-0.1-1.2-0.3c-0.4-0.2-0.7-0.5-0.9-0.8l-6.1-7c-0.5-0.5-1-0.9-1.5-1.2
		c-0.5-0.2-1.2-0.4-1.9-0.4h-2.7v11.7h2.1V8.2h0.6c0.4,0,0.8,0.1,1.2,0.3c0.4,0.2,0.7,0.5,0.9,0.8l6,6.9c0.5,0.6,1,1,1.5,1.2
		c0.5,0.3,1.2,0.4,2,0.4h2.7V6.2h-2.1V15.8z"/>
	<path class="st0" d="M229.3,11.1v3.7c0,0.5-0.3,1.1-1.2,1.1h-10.9c-0.7,0-1.2-0.4-1.2-1.1V9.2c0-0.5,0.3-1.1,1.2-1.1h13.9v-2h-13.9
		c-3,0-3.4,1.5-3.4,2.6v6.4c0,1.1,0.3,2.6,3.3,2.6h10.9c3,0,3.3-1.5,3.3-2.6v-4.2H229.3z"/>
</g>
</svg>
